<svg xmlns="http://www.w3.org/2000/svg" width="933.333" height="933.333" preserveAspectRatio="xMidYMid meet" version="1.0" viewBox="0 0 700 700"><metadata>Created by potrace 1.11, written by Peter Selinger 2001-2013</metadata><g fill="#000" stroke="none"><path d="M1118 6263 c7 -3 16 -2 19 1 4 3 -2 6 -13 5 -11 0 -14 -3 -6 -6z" transform="translate(0.000000,700.000000) scale(0.100000,-0.100000)"/><path d="M4200 6255 c0 -13 -192 -15 -1557 -17 l-1558 -3 -56 -21 c-73 -28 -124 -61 -177 -115 -41 -41 -99 -138 -110 -184 -3 -11 -7 -1098 -9 -2415 -3 -2360 -3 -2396 16 -2460 37 -122 139 -234 258 -281 l58 -24 2435 0 2435 0 57 23 c110 44 206 140 250 249 l23 58 3 2409 c2 2118 0 2417 -13 2469 -38 148 -162 273 -311 312 -87 22 -1744 23 -1744 0z m-1220 -1855 l0 -560 525 0 525 0 0 560 0 560 320 0 320 0 0 -1460 0 -1460 -320 0 -320 0 0 610 0 610 -525 0 -525 0 0 -610 0 -610 -325 0 -325 0 0 1460 0 1460 325 0 325 0 0 -560z" transform="translate(0.000000,700.000000) scale(0.100000,-0.100000)"/></g></svg>