<svg version="1.1" xmlns="http://www.w3.org/2000/svg" viewBox="0 0 100 100">
<style type="text/css">
	.st0{fill:#eee;}
</style>
<g>
	<path class="st0" d="M7.9,32.7c3.5-3.6,7.9-5.3,13.3-5.3c7.2,0,12.4,2.4,15.8,7.1c1.8,2.7,2.8,5.4,3,8.1h-4.3
		c-2.6,0-4.9-1.4-6.2-3.6c-0.2-0.4-0.5-0.7-0.7-1c-1.6-1.9-4-2.8-7.1-2.8c-3.2,0-5.8,1.3-7.6,4c-1.9,2.6-2.8,6.4-2.8,11.2
		c0,4.8,1,8.5,2.9,10.9s4.5,3.2,7.5,3.2c3.1,0,5.4-0.6,7.1-2.7c0.9-1.1,1.9-2.8,2.9-5h8.3c-0.8,4.7-2.8,8.5-5.9,11.5
		s-7.3,4.4-12.2,4.4c-6.1,0-11-2-14.5-6c-3.5-4-5.3-9.5-5.3-16.5C1.9,42.6,3.9,36.8,7.9,32.7z"/>
	<path class="st0" d="M53.3,52v-9.4h3.3c1.5,0,2.7,1.2,2.7,2.7V52h9.4v6h-9.4v9.4h-6V58h-9.4v-2.9c0-1.7,1.4-3.1,3.1-3.1H53.3z"/>
	<path class="st0" d="M82.7,52v-9.4H86c1.5,0,2.7,1.2,2.7,2.7V52h9.4v6h-9.4v9.4h-6V58h-9.4v-2.9c0-1.7,1.4-3.1,3.1-3.1H82.7z"/>
</g>
</svg>
