<svg version="1.1" xmlns="http://www.w3.org/2000/svg" viewBox="0 0 100 200" xml-space="preserve">
<style type="text/css">
	.st0{fill:#000000;}
	.st1{fill:#3B5998;}
</style>
<path class="st0" d="M95,0H5C2.2,0,0,2.2,0,5v90c0,2.8,2.2,5,5,5h46.3V46.3h-8.5V34.9h8.5v-7.4c0-2.9,0.4-5.4,1.2-7.4
	c0.8-2,2-3.6,3.4-4.8c1.5-1.2,3.3-2.1,5.5-2.6c2.2-0.5,4.6-0.8,7.3-0.8c3,0,6,0,9,0.2V24c-0.4-0.1-1,0-1.7,0c0,0-1.1,0-1.6,0
	c-8.4,0-9.9,1.1-9.9,5.2c0,2,0,5.7,0,5.7h13.2l-2.5,11.4H64.5V100H95c2.8,0,5-2.2,5-5V5C100,2.2,97.8,0,95,0z"/>
<path class="st1" d="M95,100H5c-2.8,0-5,2.2-5,5v90c0,2.8,2.2,5,5,5h46.3v-53.7h-8.5v-11.4h8.5v-7.4c0-2.9,0.4-5.4,1.2-7.4
	c0.8-2,2-3.6,3.4-4.8c1.5-1.2,3.3-2.1,5.5-2.6c2.2-0.5,4.6-0.8,7.3-0.8c3,0,6,0,9,0.2V124c-0.4-0.1-1,0-1.7,0c0,0-1.1,0-1.6,0
	c-8.4,0-9.9,1.1-9.9,5.2c0,2,0,5.7,0,5.7h13.2l-2.5,11.4H64.5V200H95c2.8,0,5-2.2,5-5v-90C100,102.2,97.8,100,95,100z"/>
</svg>
