<svg class="github" version="1.1" xmlns="http://www.w3.org/2000/svg" viewBox="0 0 100 200">
<style type="text/css">
	.st0{fill:#000000;}
	.st1{fill:#4183c4;}
</style>
<g>
	<path class="st0" d="M95,0H5C2.2,0,0,2.2,0,5v90c0,2.8,2.2,5,5,5h26.9c2.8,0,5-2.2,5-5c0,0,0-6.6,0-7.5c0,0-12.2,2-16.6-3.4
		s-1.8-6.9-9.4-12c-4.1-2.7,3.9-3,7.2,0c2.6,2.4,7.7,13.2,18,8c1.8-0.9,0.6-4,4.1-7.4c-4.7-0.8-19.9-2-24.3-19.9
		c-2.5-10,2.1-16.4,5-21.4c0.5-1-3.1-5.3,0.4-13.1c0.3-0.7,1-1.1,1.7-1.1c9.8,1.1,10.8,6.3,14.5,5.3c3.6-1,8.3-1.6,12.5-1.5
		s8.8,0.5,12.5,1.5c3.6,1,4.6-4.1,14.5-5.3c0.7,0,1.4,0.4,1.7,1.1c3.5,7.7-0.2,12.1,0.4,13.1c2.9,5,7.4,11.4,5,21.4
		c-4.4,17.9-19.5,19-24.3,19.9c3.5,3.5,3.6,14.2,3.6,15.2s0,7.1,0,7.1c0,2.8,2.2,5,5,5H95c2.8,0,5-2.2,5-5V5C100,2.2,97.8,0,95,0z"
		/>
	<path class="st0" d="M30,83.7c0.4,0.3,1.2,0.5,1.8,0.2s-0.1-0.9-0.2-1.2h-0.8C30.3,82.9,29.6,83.4,30,83.7z"/>
	<path class="st0" d="M26.9,83.3l1.8-0.7c0,0-0.6-0.7-0.6-0.8L27,82C26.6,82.2,26.9,83.3,26.9,83.3z"/>
	<path class="st0" d="M23.3,81.6c0.6,0.3,1.4,1.2,1.4,1.2s0.6-1.2,0.8-1c0.2,0.2-0.1-0.9-0.2-1h-0.9C24.4,80.9,22.7,81.4,23.3,81.6z
		"/>
	<path class="st0" d="M21.8,79c0,0,0.5,1.9,0.4,1.5c0-0.3,1.1-0.6,1-0.9l0-0.6L21.8,79z"/>
	<path class="st0" d="M21,78.8c0.5,0,0.6-1.3,0.6-1.3L20.4,77v1L21,78.8z"/>
	<path class="st0" d="M18.6,74.1c0,0,0.2,1.2,0.4,1.8l0.3,0.9c0,0,0.9-0.4,0.7-1.2S18.6,74.1,18.6,74.1z"/>
	<path class="st0" d="M16.4,73.4l0.9,0.6l0.9-1.5l-0.9,0.6C15.6,72.2,16.4,73.4,16.4,73.4z"/>
</g>
<g>
	<path class="st1" d="M95,100H5c-2.8,0-5,2.2-5,5v90c0,2.8,2.2,5,5,5h26.9c2.8,0,5-2.2,5-5c0,0,0-6.6,0-7.5c0,0-12.2,2-16.6-3.4
		s-1.8-6.9-9.4-12c-4.1-2.7,3.9-3,7.2,0c2.6,2.4,7.7,13.2,18,8c1.8-0.9,0.6-4,4.1-7.4c-4.7-0.8-19.9-2-24.3-19.9
		c-2.5-10,2.1-16.4,5-21.4c0.5-1-3.1-5.3,0.4-13.1c0.3-0.7,1-1.1,1.7-1.1c9.8,1.1,10.8,6.3,14.5,5.3c3.6-1,8.3-1.6,12.5-1.5
		s8.8,0.5,12.5,1.5c3.6,1,4.6-4.1,14.5-5.3c0.7,0,1.4,0.4,1.7,1.1c3.5,7.7-0.2,12.1,0.4,13.1c2.9,5,7.4,11.4,5,21.4
		c-4.4,17.9-19.5,19-24.3,19.9c3.5,3.5,3.6,14.2,3.6,15.2s0,7.1,0,7.1c0,2.8,2.2,5,5,5H95c2.8,0,5-2.2,5-5v-90
		C100,102.2,97.8,100,95,100z"/>
	<path class="st1" d="M30,183.7c0.4,0.3,1.2,0.5,1.8,0.2s-0.1-0.9-0.2-1.2h-0.8C30.3,182.9,29.6,183.4,30,183.7z"/>
	<path class="st1" d="M26.9,183.3l1.8-0.7c0,0-0.6-0.7-0.6-0.8l-1,0.2C26.6,182.2,26.9,183.3,26.9,183.3z"/>
	<path class="st1" d="M23.3,181.6c0.6,0.3,1.4,1.2,1.4,1.2s0.6-1.2,0.8-1c0.2,0.2-0.1-0.9-0.2-1h-0.9
		C24.4,180.9,22.7,181.4,23.3,181.6z"/>
	<path class="st1" d="M21.8,179c0,0,0.5,1.9,0.4,1.5c0-0.3,1.1-0.6,1-0.9l0-0.6L21.8,179z"/>
	<path class="st1" d="M21,178.8c0.5,0,0.6-1.3,0.6-1.3l-1.2-0.5v1L21,178.8z"/>
	<path class="st1" d="M18.6,174.1c0,0,0.2,1.2,0.4,1.8l0.3,0.9c0,0,0.9-0.4,0.7-1.2S18.6,174.1,18.6,174.1z"/>
	<path class="st1" d="M16.4,173.4l0.9,0.6l0.9-1.5l-0.9,0.6C15.6,172.2,16.4,173.4,16.4,173.4z"/>
</g>
</svg>