<svg version="1.1" xmlns="http://www.w3.org/2000/svg" viewBox="0 0 100 100">
<style type="text/css">
	.st0{fill:#eee;}
</style>
<path class="st0" d="M45,46.1h9.2c0,0,0.2,32.2,0,34.1s-1.6,11.9-12.9,12s-15-8.6-15-8.6l7.5-4.7c0,0,2.6,5,6.3,4.8s4.4-2.3,4.8-4.7
	S45,46.1,45,46.1z"/>
<path class="st0" d="M81.9,57.4l7.4-4.5c0,0-3.2-7.8-13.2-7.7s-14.1,7.9-14,13.3c0.1,5.4,4.6,10.5,9.9,12.8s12.6,4.4,10.3,8.9
	c-2.2,4.4-9.3,6-15.3-2.2c-4,2.4-7.6,4.6-7.6,4.6s5.1,10,17.2,9.6c12.2-0.3,15.2-7.4,15.4-13.4c0.2-6-4.6-12.1-13.5-15
	c-4.9-1.6-7.5-4-7-6.7s1.6-3.8,5.1-3.5C80.9,54,81.9,57.4,81.9,57.4z"/>
</svg>
