<svg version="1.1" xmlns="http://www.w3.org/2000/svg" viewBox="0 0 100 100">
<style type="text/css">
	.st0{fill:#eee;}
</style>
<g>
	<path class="st0" d="M31,47.8v16h2v-6h0c0.2,0.3,0.5,0.6,0.8,0.9c0.3,0.2,0.7,0.4,1,0.6c0.3,0.1,0.7,0.2,1,0.3c0.3,0,0.7,0.1,1,0.1
		c0.9,0,1.7-0.2,2.4-0.5c0.7-0.3,1.2-0.7,1.7-1.3c0.4-0.5,0.8-1.2,1-1.9c0.2-0.7,0.3-1.5,0.3-2.3c0-0.8-0.1-1.6-0.3-2.3
		c-0.2-0.7-0.6-1.4-1-1.9c-0.4-0.6-1-1-1.7-1.3c-0.7-0.3-1.5-0.5-2.4-0.5c-0.8,0-1.6,0.1-2.3,0.4c-0.7,0.3-1.2,0.7-1.5,1.4h0v-1.6
		L31,47.8L31,47.8z M33.1,52c0.1-0.5,0.3-1,0.6-1.4c0.3-0.4,0.7-0.7,1.1-1c0.4-0.3,1-0.4,1.7-0.4c0.6,0,1.2,0.1,1.6,0.3
		c0.5,0.2,0.8,0.6,1.1,1s0.5,0.9,0.7,1.4c0.1,0.5,0.2,1,0.2,1.6c0,0.6,0,1.1-0.2,1.7c-0.1,0.5-0.3,1-0.6,1.4c-0.3,0.4-0.7,0.7-1.1,1
		s-1,0.4-1.7,0.4c-0.7,0-1.2-0.1-1.7-0.3c-0.5-0.3-0.9-0.6-1.1-1c-0.3-0.4-0.5-0.9-0.7-1.4c-0.1-0.5-0.2-1.1-0.2-1.7
		C32.9,53.1,33,52.5,33.1,52z"/>
	<path class="st0" d="M54,52c-0.2-0.8-0.4-1.5-0.9-2.1c-0.4-0.7-1-1.2-1.7-1.6c-0.7-0.4-1.6-0.7-2.6-0.7c-0.8,0-1.6,0.1-2.2,0.4
		c-0.7,0.3-1.3,0.7-1.7,1.3c-0.5,0.5-0.9,1.2-1.1,1.9c-0.3,0.7-0.4,1.5-0.4,2.4c0,0.9,0.2,1.7,0.4,2.4c0.2,0.7,0.6,1.4,1,1.9
		c0.5,0.5,1,1,1.7,1.3c0.7,0.3,1.5,0.4,2.4,0.4c1.4,0,2.4-0.3,3.4-1c0.9-0.7,1.4-1.6,1.7-2.9h-1.9c-0.2,0.7-0.5,1.3-1,1.7
		S49.9,58,49,58c-0.7,0-1.2-0.1-1.7-0.3s-0.9-0.5-1.2-0.8s-0.5-0.7-0.7-1.2c-0.1-0.5-0.2-0.9-0.2-1.4h8.9C54.2,53.5,54.2,52.7,54,52
		z M45.3,52.5c0-0.4,0.1-0.9,0.3-1.3c0.2-0.4,0.4-0.7,0.7-1s0.7-0.5,1-0.7c0.4-0.2,0.9-0.3,1.4-0.3s0.9,0.1,1.4,0.3
		c0.4,0.2,0.7,0.4,1,0.7c0.3,0.3,0.5,0.7,0.7,1c0.2,0.4,0.3,0.8,0.3,1.3H45.3z"/>
	<path class="st0" d="M65.3,59.4v-7.6c0-0.6-0.1-1.2-0.2-1.7c-0.1-0.5-0.3-1-0.7-1.3c-0.3-0.4-0.7-0.7-1.3-0.9s-1.2-0.3-2-0.3
		c-1.7,0-3.1,0.7-3.8,2.1h0v-1.8h-1.8v11.6h2v-6.6c0-0.5,0.1-1,0.2-1.4s0.3-0.8,0.7-1.1c0.3-0.3,0.7-0.6,1.1-0.7
		c0.4-0.2,1-0.3,1.5-0.3c0.7,0,1.4,0.2,1.7,0.6c0.4,0.4,0.7,1,0.7,1.7v7.8C63.3,59.4,65.3,59.4,65.3,59.4z"/>
	<path class="st0" d="M76.5,52.5h4.1c-0.1,1.3-0.6,2.2-1.3,2.9c-0.7,0.7-1.8,1-3.1,1c-0.9,0-1.7-0.2-2.4-0.5s-1.2-0.8-1.6-1.4
		s-0.7-1.2-0.9-2c-0.2-0.7-0.3-1.5-0.3-2.2c0-0.8,0.1-1.6,0.3-2.3s0.5-1.4,0.9-2c0.4-0.6,0.9-1,1.6-1.4c0.7-0.3,1.4-0.5,2.4-0.5
		c1,0,1.8,0.3,2.5,0.7c0.7,0.5,1.2,1.3,1.4,2.3H84c-0.1-1-0.4-2-0.9-2.8c-0.5-0.8-1-1.5-1.8-2c-0.7-0.5-1.5-1-2.4-1.2
		c-0.9-0.3-1.8-0.4-2.8-0.4c-1.4,0-2.7,0.3-3.8,0.7s-2.1,1.2-2.9,2.1c-0.8,0.9-1.4,1.9-1.8,3.1C67.2,47.7,67,49,67,50.3
		c0,1.3,0.2,2.6,0.6,3.7c0.4,1.1,1,2.1,1.8,3c0.8,0.8,1.7,1.5,2.9,2c1.1,0.5,2.4,0.7,3.8,0.7c0.9,0,1.8-0.2,2.7-0.6
		c0.9-0.3,1.7-1,2.4-1.9l0.4,2.1h2.6v-9.8h-7.7V52.5z"/>
	<polygon class="st0" points="90.9,56 90.9,41.2 86.8,41.2 86.8,59.4 100,59.4 100,56 	"/>
	<path class="st0" d="M15.8,58.6c0.2,0.1,0.4,0.3,0.7,0.3c1.1,0.5,2.4,0.8,3.9,0.8s2.8-0.3,3.9-0.8c1.1-0.5,2.1-1.2,2.8-2.1
		s1.3-1.9,1.7-3c0.4-1.1,0.6-2.3,0.6-3.6c0-1.2-0.2-2.4-0.6-3.6c-0.3-1.1-0.9-2.1-1.7-3s-1.7-1.6-2.8-2.1c-1.1-0.6-2.4-0.8-3.9-0.8
		c-1.5,0-2.8,0.3-3.9,0.8c0,0-0.1,0-0.1,0c5.9-4.9,16.8-8.3,29.2-8.3c10.4,0,19.8,2.1,26.1,5.9c-6.8-6.2-19.1-10.7-33-10.7
		C17.4,28.5,0,38.3,0,50.4s17.4,21.9,38.7,21.9c13.9,0,26.1-4.4,32.9-10.6c-6.2,3.7-15.6,5.8-26,5.8C32.8,67.4,21.6,63.9,15.8,58.6z
		 M17.5,43.5c0.8-0.4,1.8-0.7,2.9-0.7c1.1,0,2.1,0.2,2.9,0.7c0.8,0.4,1.5,1,2,1.7c0.5,0.7,0.9,1.5,1.1,2.4c0.3,0.9,0.3,1.8,0.3,2.7
		c0,0.9-0.1,1.8-0.3,2.7c-0.3,0.9-0.6,1.7-1.1,2.4c-0.5,0.7-1.2,1.3-2,1.7c-0.8,0.4-1.8,0.7-2.9,0.7s-2.1-0.2-2.9-0.7
		c-0.8-0.4-1.5-1-2-1.7c-0.5-0.7-0.9-1.5-1.1-2.4c-0.3-0.9-0.3-1.8-0.3-2.7c0-0.9,0.1-1.8,0.3-2.7c0.3-0.9,0.6-1.7,1.1-2.4
		C16,44.5,16.7,43.9,17.5,43.5z"/>
</g>
</svg>
