<svg version="1.1" xmlns="http://www.w3.org/2000/svg" viewBox="0 25 100 50">
<style type="text/css">
	.st0{fill:#eee;}
	.st1{fill:#aaa;}
</style>
<g id="Layer_2">
	<path class="st0" d="M0.4,49.7c3.6-3.3,11-8.2,11-8.2l1,11.6l-4.3,3.1l-3-2.1L7.9,52l-0.1-1.4L2.6,54l4.6,3.5l1.4,7.1
		c0,0-3.4,2.3-5.5,3.7C0.2,64.6,0,53.2,0.4,49.7z"/>
	<path class="st0" d="M20.3,60l-0.4-9.7l1.3-0.4l1,9.7l5.1-2.2l1.6-6.3l-0.4-18.4l-8.4,3.9l0.4,7.3l-1.4,0.4l-0.5-6.9l-6.2,3.2
		c0,0,1.3,16,2.8,21.7C16.9,61.4,20.3,60,20.3,60z"/>
	<polygon class="st0" points="37,54.9 39.6,44.6 38.3,40.7 45.3,39.3 45.9,40.6 40.1,41.9 45,53.9 51.3,52.5 51,46.3 43.2,29.9 
		34.6,31.5 28.9,57.1 	"/>
	<polygon class="st0" points="72.3,54.9 72.8,47 63.2,36.7 73.4,38.3 73.9,32.1 52.5,29 52.5,37 63.8,47.3 52.5,47.3 52.8,54.9 	"/>
	<path class="st0" d="M84.2,55.8l1-5.3l-5.4-1.2l0.1-1.5l5.7,1.4l0.8-4.1l-6.3-2.3l0.1-1.4l6.5,2.3c0,0,0.8-4.4,0.9-5.9
		c-1.2-1.7-9.7-5-12.5-5c-0.2,2.2-1.2,21.5-1.2,21.5L84.2,55.8z"/>
	<path class="st0" d="M90.5,57.1l-0.2-12.9l5.7,3.6l-0.1,1.6l-4.3-3l0.9,22.1l4.8-1.5l-2.2-14.4l3.7,1.9c0,0,1.5-4.5,0.7-8.1
		c-1.1-2.4-6.9-8.4-10.2-9.3c-1.7,4.3-3.7,19.1-3.7,19.1L90.5,57.1z"/>
</g>
<g id="Layer_3">
	<polygon class="st1" points="8.7,65.2 15.3,67.6 12.4,71 3.6,68.7 	"/>
	<polygon class="st1" points="9.2,64.5 15.6,66.8 14.6,63.2 13.7,62.6 13.5,60.6 8.3,57.8 	"/>
	<polygon class="st1" points="13.2,59 12.4,54.2 8.7,56.6 	"/>
	<polygon class="st1" points="22.2,66.2 26.2,65 20.9,60.8 16.4,62.5 	"/>
	<polygon class="st1" points="28.4,64.5 32.2,63.5 27.6,58.2 23,59.9 	"/>
	<polygon class="st1" points="34.3,63.1 39.8,61.3 36.9,55.8 29.8,57.8 	"/>
	<polygon class="st1" points="29.8,47.9 31.6,38.3 29.6,34.9 	"/>
	<polygon class="st1" points="40.8,60.7 43.1,52.7 40.3,46.2 37.9,55.3 	"/>
	<polygon class="st1" points="47.1,59.4 51.3,58.7 51.7,53.6 45.5,54.9 	"/>
	<polygon class="st1" points="67.7,60.1 71.3,55.5 53.3,55.5 53.3,59.4 	"/>
	<polygon class="st1" points="53.9,43.5 57,45.6 60.7,45.6 53.3,39 	"/>
	<polygon class="st1" points="72.9,39 66.2,38 71,42.9 	"/>
	<polygon class="st1" points="73.9,39.7 71.9,44.2 73.5,45.6 	"/>
	<polygon class="st1" points="80.3,62.4 83.6,56.5 73.9,54.9 70,60.6 	"/>
	<polygon class="st1" points="85.6,57.1 82.1,63 85,63.4 89.9,57.8 	"/>
	<polygon class="st1" points="91.4,68.2 90.9,58.7 88.2,62.4 88.7,68.5 	"/>
	<polygon class="st1" points="97,55.8 97.9,55 96.7,54.4 	"/>
</g>
</svg>
