<svg class="trello" version="1.1" xmlns="http://www.w3.org/2000/svg" viewBox="0 0 100 200">
<style type="text/css">
	.st0{fill:#000000;}
	.st1{fill:#0079BF;}
</style>
<path class="st0" d="M95,100H5c-2.8,0-5-2.2-5-5V5c0-2.8,2.2-5,5-5h90c2.8,0,5,2.2,5,5v90C100,97.8,97.8,100,95,100z M44.8,77.6v-65
	c0-1.4-1.1-2.5-2.5-2.5h-30c-1.4,0-2.5,1.1-2.5,2.5v65c0,1.4,1.1,2.5,2.5,2.5h30C43.7,80.1,44.8,78.9,44.8,77.6z M90,52.6v-40
	c0-1.4-1.1-2.5-2.5-2.5h-30c-1.4,0-2.5,1.1-2.5,2.5v40c0,1.4,1.1,2.5,2.5,2.5h30C88.9,55.1,90,53.9,90,52.6z"/>
<path class="st1" d="M95,200H5c-2.8,0-5-2.2-5-5v-90c0-2.8,2.2-5,5-5h90c2.8,0,5,2.2,5,5v90C100,197.8,97.8,200,95,200z M44.8,177.6
	v-65c0-1.4-1.1-2.5-2.5-2.5h-30c-1.4,0-2.5,1.1-2.5,2.5v65c0,1.4,1.1,2.5,2.5,2.5h30C43.7,180.1,44.8,178.9,44.8,177.6z M90,152.6
	v-40c0-1.4-1.1-2.5-2.5-2.5h-30c-1.4,0-2.5,1.1-2.5,2.5v40c0,1.4,1.1,2.5,2.5,2.5h30C88.9,155.1,90,153.9,90,152.6z"/>
</svg>
